<svg width="24" height="24" fill="none" xmlns="http://www.w3.org/2000/svg"><g clip-path="url(#a)"><path d="M23.499 6.203a3.008 3.008 0 0 0-2.089-2.089c-1.87-.501-9.4-.501-9.4-.501s-7.509-.01-9.399.501a3.008 3.008 0 0 0-2.088 2.09A31.263 31.263 0 0 0 0 12.01c-.006 1.94.17 3.877.523 5.785a3.009 3.009 0 0 0 2.088 2.09c1.869.501 9.4.501 9.4.501s7.508 0 9.399-.502a3.008 3.008 0 0 0 2.089-2.09c.346-1.908.513-3.845.5-5.784a31.262 31.262 0 0 0-.5-5.808v.001zm-13.891 9.4V8.407l6.266 3.604-6.266 3.592z" fill="#fff"/></g><defs><clipPath id="a"><path fill="#fff" d="M0 0h24v24H0z"/></clipPath></defs></svg>